<svg width="42" height="42" viewBox="0 0 42 42" fill="none" xmlns="http://www.w3.org/2000/svg">
<path d="M39.9 23.1H2.1C1.54305 23.1 1.0089 22.8787 0.615076 22.4849C0.221249 22.0911 0 21.5569 0 21C0 20.443 0.221249 19.9089 0.615076 19.5151C1.0089 19.1212 1.54305 18.9 2.1 18.9H39.9C40.457 18.9 40.9911 19.1212 41.3849 19.5151C41.7788 19.9089 42 20.443 42 21C42 21.5569 41.7788 22.0911 41.3849 22.4849C40.9911 22.8787 40.457 23.1 39.9 23.1ZM39.9 8.39998H2.1C1.54305 8.39998 1.0089 8.17873 0.615076 7.78491C0.221249 7.39108 0 6.85694 0 6.29998C0 5.74303 0.221249 5.20888 0.615076 4.81506C1.0089 4.42123 1.54305 4.19998 2.1 4.19998H39.9C40.457 4.19998 40.9911 4.42123 41.3849 4.81506C41.7788 5.20888 42 5.74303 42 6.29998C42 6.85694 41.7788 7.39108 41.3849 7.78491C40.9911 8.17873 40.457 8.39998 39.9 8.39998ZM39.9 37.8H2.1C1.54305 37.8 1.0089 37.5787 0.615076 37.1849C0.221249 36.7911 0 36.2569 0 35.7C0 35.143 0.221249 34.6089 0.615076 34.2151C1.0089 33.8212 1.54305 33.6 2.1 33.6H39.9C40.457 33.6 40.9911 33.8212 41.3849 34.2151C41.7788 34.6089 42 35.143 42 35.7C42 36.2569 41.7788 36.7911 41.3849 37.1849C40.9911 37.5787 40.457 37.8 39.9 37.8Z" fill="black"/>
</svg>
