<svg width="16" height="16" viewBox="0 0 16 16" fill="none" xmlns="http://www.w3.org/2000/svg">
<g clip-path="url(#clip0_12_1405)">
<path d="M10.7665 5.23363L10.7465 5.21363C10.0927 4.55966 9.22706 4.16042 8.30522 4.08771C7.38338 4.015 6.46585 4.2736 5.71766 4.817C4.96947 5.36039 4.43971 6.15292 4.22369 7.05203C4.00766 7.95114 4.11953 8.89782 4.53918 9.72182L4.71009 10.0582L4.39191 11.6036L4.38736 11.6236L5.92282 11.26L6.27282 11.4373C7.00106 11.799 7.82439 11.9235 8.62701 11.793C9.42963 11.6625 10.1712 11.2838 10.7474 10.71C11.4721 9.98517 11.8809 9.00321 11.8847 7.97821C11.8884 6.95321 11.4868 5.96829 10.7674 5.23818L10.7665 5.23363ZM10.6101 9.57182C10.4219 9.86818 10.1246 10.23 9.751 10.32C9.09645 10.4791 8.09191 10.3255 6.84191 9.16091L6.82645 9.14636C5.72736 8.12818 5.44191 7.28 5.511 6.60727C5.54918 6.22454 5.86736 5.88 6.13554 5.65363C6.17802 5.61763 6.2283 5.59203 6.28239 5.57886C6.33649 5.56568 6.39291 5.5653 6.44718 5.57775C6.50145 5.59019 6.55207 5.61511 6.59503 5.65053C6.63798 5.68596 6.67209 5.73091 6.69463 5.78182L7.09918 6.69636C7.12567 6.75526 7.13552 6.82029 7.12767 6.8844C7.11981 6.9485 7.09456 7.00923 7.05463 7.06L6.85009 7.32545C6.80726 7.37988 6.7814 7.44572 6.77574 7.51475C6.77008 7.58378 6.78488 7.65295 6.81827 7.71363C6.93282 7.91363 7.20736 8.20909 7.51191 8.48363C7.85372 8.79182 8.23282 9.07454 8.47282 9.17182C8.53718 9.19757 8.60775 9.20363 8.67556 9.18923C8.74338 9.17482 8.80539 9.1406 8.85372 9.09091L9.091 8.85182C9.13678 8.80667 9.19372 8.77447 9.256 8.7585C9.31828 8.74253 9.38369 8.74336 9.44554 8.76091L10.4065 9.03363C10.4596 9.04986 10.5083 9.07804 10.5489 9.11602C10.5894 9.154 10.6207 9.20077 10.6404 9.25274C10.66 9.3047 10.6675 9.36048 10.6623 9.41579C10.657 9.47111 10.6392 9.52448 10.6101 9.57182Z" fill="white"/>
<path d="M13.8182 0H2.18182C1.60316 0 1.04821 0.229869 0.63904 0.63904C0.229869 1.04821 0 1.60316 0 2.18182L0 13.8182C0 14.3968 0.229869 14.9518 0.63904 15.361C1.04821 15.7701 1.60316 16 2.18182 16H13.8182C14.3968 16 14.9518 15.7701 15.361 15.361C15.7701 14.9518 16 14.3968 16 13.8182V2.18182C16 1.60316 15.7701 1.04821 15.361 0.63904C14.9518 0.229869 14.3968 0 13.8182 0ZM12.9573 8.11818C12.9304 8.94872 12.6954 9.75922 12.2738 10.4753C11.8521 11.1913 11.2574 11.79 10.5441 12.2163C9.8308 12.6426 9.02186 12.8829 8.19151 12.9152C7.36117 12.9475 6.53602 12.7706 5.79182 12.4009L3.28727 12.9945C3.24931 13.0034 3.20957 13.0006 3.17324 12.9865C3.1369 12.9723 3.10568 12.9476 3.08364 12.9155C3.06876 12.8941 3.05842 12.87 3.05326 12.8445C3.0481 12.819 3.04823 12.7927 3.05364 12.7673L3.58 10.2118C3.23667 9.53766 3.05211 8.79389 3.04044 8.03743C3.02878 7.28097 3.19031 6.53186 3.51268 5.84743C3.83505 5.163 4.30972 4.56138 4.90037 4.08862C5.49102 3.61585 6.18198 3.28447 6.9204 3.11982C7.65882 2.95517 8.42511 2.96162 9.16066 3.13868C9.8962 3.31573 10.5815 3.65871 11.1641 4.14135C11.7467 4.62399 12.2112 5.23351 12.522 5.92327C12.8328 6.61303 12.9817 7.36475 12.9573 8.12091V8.11818Z" fill="white"/>
</g>
<defs>
<clipPath id="clip0_12_1405">
<rect width="16" height="16" fill="white"/>
</clipPath>
</defs>
</svg>
