<svg width="157" height="60" viewBox="0 0 157 60" fill="none" xmlns="http://www.w3.org/2000/svg">
<g clip-path="url(#clip0_2_5)">
<path d="M90.6256 9.77018V11.2084C90.6256 11.258 90.6671 11.291 90.7249 11.291H91.6175C91.7882 11.2772 91.9575 11.331 92.0889 11.4408C92.2203 11.5506 92.3034 11.7076 92.3202 11.878V13.1757C92.3397 13.3726 92.3982 13.5636 92.4921 13.7378C92.586 13.9119 92.7135 14.0657 92.8672 14.1902C93.021 14.3148 93.198 14.4076 93.3879 14.4633C93.5778 14.519 93.7767 14.5365 93.9733 14.5147H103.281C103.477 14.5365 103.676 14.519 103.866 14.4633C104.056 14.4076 104.233 14.3148 104.387 14.1902C104.54 14.0657 104.668 13.9119 104.762 13.7378C104.856 13.5636 104.914 13.3726 104.934 13.1757V11.878C104.951 11.7076 105.034 11.5506 105.165 11.4408C105.296 11.331 105.466 11.2772 105.636 11.291H106.314C106.372 11.291 106.422 11.2911 106.422 11.2084V9.77018C106.421 9.75713 106.417 9.74438 106.411 9.73274C106.405 9.7211 106.397 9.71082 106.387 9.70237C106.377 9.69392 106.365 9.68747 106.353 9.6835C106.34 9.67954 106.327 9.67813 106.314 9.67926H90.7909C90.7789 9.65734 90.7586 9.64114 90.7346 9.63416C90.7106 9.62719 90.6849 9.62998 90.663 9.64203C90.6411 9.65409 90.6247 9.67441 90.6178 9.69844C90.6108 9.72246 90.6136 9.74825 90.6256 9.77018Z" fill="#1E1E1C"/>
<path d="M90.626 17.6887V19.1352C90.627 19.1472 90.6305 19.1589 90.6361 19.1695C90.6416 19.1802 90.6493 19.1896 90.6585 19.1973C90.6677 19.205 90.6783 19.2107 90.6898 19.2142C90.7012 19.2178 90.7133 19.2191 90.7253 19.218H91.6178C91.7885 19.2041 91.9578 19.2578 92.0892 19.3676C92.2207 19.4774 92.3037 19.6344 92.3205 19.8048V21.1025C92.3622 21.4993 92.5598 21.8633 92.8698 22.1144C93.1798 22.3655 93.5769 22.4832 93.9737 22.4415H103.281C103.678 22.4832 104.075 22.3655 104.385 22.1144C104.695 21.8633 104.892 21.4993 104.934 21.1025V19.8048C104.951 19.6344 105.034 19.4774 105.165 19.3676C105.297 19.2578 105.466 19.2041 105.637 19.218H106.314C106.339 19.2204 106.364 19.2131 106.384 19.1978C106.404 19.1824 106.418 19.1601 106.422 19.1352V17.6887C106.418 17.6639 106.404 17.6415 106.384 17.6261C106.364 17.6108 106.339 17.6036 106.314 17.6061H90.7913C90.7803 17.5841 90.7612 17.5675 90.738 17.5598C90.7147 17.552 90.6893 17.5538 90.6674 17.5648C90.6454 17.5758 90.6287 17.5949 90.6209 17.6182C90.6132 17.6414 90.615 17.6668 90.626 17.6887Z" fill="#1E1E1C"/>
<path d="M90.6257 25.5909V27.0291C90.6257 27.0418 90.6283 27.0543 90.6334 27.0659C90.6385 27.0775 90.6459 27.0879 90.6552 27.0965C90.6645 27.1051 90.6757 27.1116 90.6877 27.1157C90.6997 27.1197 90.7124 27.1212 90.725 27.12H91.6176C91.7874 27.1039 91.9569 27.1558 92.0886 27.2642C92.2203 27.3727 92.3035 27.5288 92.3203 27.6986V28.9964C92.3399 29.1936 92.3982 29.3849 92.492 29.5595C92.5858 29.7341 92.7133 29.8883 92.8669 30.0135C93.0205 30.1387 93.1973 30.2323 93.3872 30.289C93.5771 30.3456 93.7763 30.3643 93.9734 30.3437H103.281C103.478 30.3643 103.677 30.3456 103.867 30.289C104.057 30.2323 104.234 30.1387 104.387 30.0135C104.541 29.8883 104.668 29.7341 104.762 29.5595C104.856 29.3849 104.914 29.1936 104.934 28.9964V27.6986C104.951 27.5288 105.034 27.3727 105.166 27.2642C105.297 27.1558 105.467 27.1039 105.636 27.12H106.314C106.327 27.1211 106.34 27.1197 106.353 27.1158C106.365 27.1118 106.377 27.1054 106.387 27.0969C106.397 27.0885 106.405 27.0782 106.411 27.0665C106.417 27.0549 106.421 27.0421 106.422 27.0291V25.5909C106.422 25.5413 106.372 25.5082 106.314 25.5082H90.791C90.6836 25.4752 90.6257 25.5413 90.6257 25.5909Z" fill="#1E1E1C"/>
<path d="M92.246 0.140508C89.2505 0.140495 86.3774 1.3282 84.2563 3.44318C82.1351 5.55817 80.9389 8.42789 80.9302 11.4233V39.8741H104.736C106.222 39.8752 107.695 39.5832 109.068 39.015C110.442 38.4469 111.691 37.6135 112.742 36.5627C113.794 35.5118 114.628 34.2639 115.198 32.8905C115.767 31.517 116.06 30.0449 116.06 28.5582V0.107513L92.246 0.140508ZM111.183 26.2603C111.183 28.4197 110.325 30.4906 108.798 32.0175C107.271 33.5444 105.2 34.4022 103.041 34.4022H85.7906V13.7873C85.7906 11.628 86.6484 9.5571 88.1752 8.03022C89.7021 6.50334 91.7729 5.64554 93.9322 5.64554H111.183V26.2603Z" fill="#4DB273"/>
<path d="M121.267 40.0394V0.0992432H157.033V40.0394H144.138V8.67084H134.162V40.0394H121.267Z" fill="#1E1E1C"/>
<path d="M35.6833 9.64615H0.586914V6.10352e-05H35.6916L35.6833 9.64615ZM35.6833 40.1386H0.586914V15.2255H34.617V24.8635H15.052V30.4924H35.7164L35.6833 40.1386Z" fill="#1E1E1C"/>
<path d="M41.0891 39.9402V0.198425H76.6319V39.9402H63.82V8.72865H53.9011V39.9402H41.0891Z" fill="#1E1E1C"/>
<path d="M0 57.5546V46.7181H8.26577V48.8259H2.23999V51.0742H7.60447V53.0249H2.23999V55.4468H8.44759V57.5546H0Z" fill="#1E1E1C"/>
<path d="M9.29077 59.4639V55.4468H10.4562C11.355 53.4389 11.7629 51.2459 11.6464 49.0491V46.7181H19.5071V55.4468H20.8959V59.4639H18.7716V57.5546H11.3324V59.4639H9.29077ZM13.7459 48.8259V49.0491C13.8522 51.229 13.506 53.4072 12.7293 55.4468H17.2754V48.8342L13.7459 48.8259Z" fill="#1E1E1C"/>
<path d="M21.2512 57.5546L25.9544 46.7181H28.0126L32.6911 57.5546H30.3436L29.426 55.4302H24.4665L23.5574 57.5546H21.2512ZM25.2437 53.4795H28.6325L26.9793 49.4624L25.2437 53.4795Z" fill="#1E1E1C"/>
<path d="M45.2716 57.5546V48.8259H40.2625V57.5546H38.0391V46.7181H47.5364V57.5546H45.2716Z" fill="#4DB273"/>
<path d="M49.355 52.3471C49.3495 51.5775 49.4926 50.8142 49.7766 50.0989C50.0463 49.4322 50.4452 48.8254 50.9503 48.3134C51.4651 47.8061 52.0785 47.4094 52.7524 47.1479C53.4842 46.8604 54.2638 46.7145 55.0501 46.7181C56.0646 46.7039 57.066 46.9486 57.9596 47.429C58.8097 47.8879 59.5121 48.5786 59.9849 49.421C60.4846 50.3141 60.7383 51.3239 60.7205 52.3471C60.7281 53.1257 60.582 53.8982 60.2906 54.6202C60.0259 55.2895 59.6265 55.8973 59.117 56.4056C58.6007 56.9112 57.9877 57.3075 57.3149 57.571C56.5922 57.8484 55.8241 57.9886 55.0501 57.9843C54.031 58.001 53.0245 57.7593 52.1241 57.2818C51.2696 56.8223 50.564 56.1284 50.0906 55.2815C49.5895 54.3859 49.3357 53.3732 49.355 52.3471ZM51.6695 52.3471C51.6541 52.8126 51.7324 53.2764 51.8999 53.7109C52.0675 54.1454 52.3209 54.5418 52.6448 54.8764C52.9531 55.2025 53.3266 55.4601 53.741 55.6324C54.1554 55.8048 54.6014 55.888 55.0501 55.8766C55.4998 55.8923 55.9478 55.812 56.364 55.6409C56.7802 55.4699 57.1551 55.212 57.4638 54.8847C58.1003 54.1962 58.4389 53.2842 58.406 52.3471C58.4163 51.8904 58.3363 51.4362 58.1703 51.0106C58.0043 50.585 57.7557 50.1965 57.439 49.8674C57.1333 49.5419 56.7627 49.2839 56.3513 49.1102C55.9398 48.9366 55.4966 48.851 55.0501 48.859C54.599 48.8479 54.1506 48.931 53.7335 49.1033C53.3165 49.2755 52.94 49.533 52.6282 49.8591C51.9986 50.5325 51.6575 51.4255 51.6778 52.3471H51.6695Z" fill="#4DB273"/>
<path d="M72.3006 57.5546V48.8259H67.2667V57.5546H65.0598V46.7181H74.5572V57.5546H72.3006Z" fill="#1E1E1C"/>
<path d="M76.3922 52.3472C76.3843 51.5766 76.5304 50.8122 76.822 50.0989C77.0857 49.4311 77.4821 48.8236 77.9874 48.3135C78.5039 47.8043 79.1204 47.4074 79.7977 47.148C80.5265 46.8597 81.3037 46.7138 82.0874 46.7181C83.102 46.7032 84.1036 46.948 84.997 47.4291C85.8477 47.8899 86.5521 48.58 87.0303 49.4211C87.53 50.3142 87.7837 51.3239 87.7659 52.3472C87.7695 53.1254 87.6236 53.8971 87.336 54.6203C87.0654 55.2885 86.6635 55.8956 86.1541 56.4057C85.6392 56.913 85.0261 57.3096 84.3522 57.5711C83.6297 57.8493 82.8615 57.9894 82.0874 57.9844C81.0683 58.0011 80.0616 57.7594 79.1613 57.2818C78.3103 56.8176 77.606 56.1249 77.1279 55.2816C76.629 54.3851 76.3752 53.373 76.3922 52.3472ZM78.7149 52.3472C78.6998 52.8119 78.7775 53.2749 78.9435 53.7092C79.1096 54.1435 79.3606 54.5403 79.6819 54.8765C79.9903 55.2026 80.3639 55.4602 80.7783 55.6325C81.1927 55.8048 81.6387 55.888 82.0874 55.8767C82.5383 55.8925 82.9874 55.8122 83.4049 55.6412C83.8225 55.4702 84.1989 55.2123 84.5092 54.8847C85.1396 54.1931 85.4747 53.2825 85.4431 52.3472C85.4534 51.8905 85.3734 51.4362 85.2074 51.0107C85.0415 50.5851 84.7929 50.1966 84.4761 49.8675C84.171 49.5411 83.8006 49.2826 83.389 49.1089C82.9774 48.9351 82.534 48.85 82.0874 48.8591C81.6376 48.8481 81.1904 48.9314 80.7747 49.1036C80.359 49.2759 79.9839 49.5333 79.6736 49.8592C79.0379 50.5293 78.6933 51.4238 78.7149 52.3472Z" fill="#1E1E1C"/>
<path d="M88.1047 59.4639V55.4468H89.2703C90.1691 53.4389 90.5771 51.2459 90.4606 49.0491V46.7181H98.3213V55.4468H99.7099V59.4639H97.6104V57.5546H90.1712V59.4639H88.1047ZM92.5601 48.8259V49.0491C92.6663 51.229 92.3202 53.4072 91.5434 55.4468H96.0896V48.8342L92.5601 48.8259Z" fill="#1E1E1C"/>
<path d="M108.497 57.5546V48.8259H103.454V57.5546H101.231V46.7181H110.728V57.5546H108.497Z" fill="#1E1E1C"/>
<path d="M115.093 57.5546H113.216V46.7181H115.448V53.8763L121.044 46.7181H122.92V57.5546H120.689V50.4212L115.093 57.5546Z" fill="#1E1E1C"/>
<path d="M133.666 53.959L135.55 54.5624C135.196 55.5745 134.523 56.4446 133.633 57.0421C132.667 57.6653 131.534 57.9796 130.384 57.9431C129.386 57.9595 128.401 57.7175 127.524 57.2406C126.68 56.7755 125.984 56.0823 125.516 55.2402C125.02 54.343 124.769 53.3308 124.788 52.3058C124.774 51.2945 125.025 50.297 125.516 49.4128C126 48.5664 126.71 47.8711 127.566 47.4043C128.48 46.9127 129.504 46.6623 130.541 46.6769C131.655 46.652 132.75 46.9725 133.674 47.5944C134.553 48.1922 135.21 49.0641 135.542 50.0741L133.616 50.694C133.347 50.1082 132.913 49.6138 132.367 49.2716C131.82 48.9295 131.186 48.7545 130.541 48.7681C130.082 48.7519 129.624 48.8317 129.197 49.0025C128.77 49.1733 128.383 49.4313 128.062 49.76C127.738 50.096 127.485 50.494 127.319 50.93C127.153 51.3661 127.077 51.8312 127.095 52.2975C127.079 52.7657 127.159 53.232 127.33 53.6683C127.5 54.1045 127.758 54.5015 128.086 54.8352C128.408 55.1639 128.795 55.4219 129.222 55.5926C129.649 55.7634 130.107 55.8432 130.566 55.827C131.25 55.8525 131.925 55.6678 132.5 55.298C133.002 54.9644 133.405 54.5018 133.666 53.959Z" fill="#1E1E1C"/>
<path d="M137.253 57.5546V46.7181H139.485V51.6775L144.122 46.7181H146.99L142.411 51.4709L147.222 57.5546H144.329L140.642 52.901L139.485 54.116V57.5546H137.253Z" fill="#1E1E1C"/>
<path d="M148.544 57.5546V46.7181H156.81V48.8259H150.743V51.0742H156.107V53.0249H150.743V55.4468H156.95V57.5546H148.544Z" fill="#1E1E1C"/>
</g>
<defs>
<clipPath id="clip0_2_5">
<rect width="157" height="59.4557" fill="white"/>
</clipPath>
</defs>
</svg>
