<svg width="71" height="71" viewBox="0 0 71 71" fill="none" xmlns="http://www.w3.org/2000/svg">
<path d="M4.51826 61.719H63.416C63.5872 61.719 63.7513 61.651 63.8724 61.53C63.9934 61.4089 64.0614 61.2448 64.0614 61.0736C64.0614 60.9024 63.9934 60.7382 63.8724 60.6172C63.7513 60.4961 63.5872 60.4281 63.416 60.4281H56.3463C56.4517 60.1778 56.5059 59.909 56.5057 59.6374V57.6469H60.3933C62.0231 57.6469 63.2643 56.1817 62.999 54.5726L58.1 25.1063C57.9987 24.4886 57.6811 23.9272 57.2038 23.5223C56.7266 23.1174 56.1208 22.8955 55.495 22.8962H40.4881V17.4292H51.6358C55.7732 17.4292 59.1392 14.0638 59.1392 9.92646C59.1392 9.75528 59.0712 9.5911 58.9502 9.47006C58.8291 9.34901 58.6649 9.28101 58.4937 9.28101H10.0575C9.88636 9.28101 9.72219 9.34901 9.60114 9.47006C9.4801 9.5911 9.41209 9.75528 9.41209 9.92646C9.41209 14.0638 12.7781 17.4299 16.9155 17.4299H28.0625V22.8962H14.3853C13.7584 22.8946 13.1514 23.1162 12.6729 23.5212C12.1945 23.9263 11.8757 24.4883 11.7738 25.1069L6.87481 54.5732C6.60888 56.1862 7.8559 57.6469 9.48632 57.6469H13.3681V59.6374C13.3681 59.9176 13.4249 60.1848 13.5275 60.4281H4.51826C4.34707 60.4281 4.1829 60.4961 4.06185 60.6172C3.94081 60.7382 3.8728 60.9024 3.8728 61.0736C3.8728 61.2448 3.94081 61.4089 4.06185 61.53C4.1829 61.651 4.34707 61.719 4.51826 61.719ZM55.2148 59.6374C55.2148 60.0525 54.8773 60.39 54.4622 60.39H47.9535C47.754 60.3897 47.5628 60.3103 47.4217 60.1692C47.2806 60.0282 47.2012 59.8369 47.2009 59.6374V57.6469H55.2148V59.6374ZM10.7366 10.5719H57.8147C57.4907 13.6953 54.8437 16.139 51.6358 16.139H16.9155C13.7076 16.139 11.0606 13.6953 10.7366 10.5719ZM29.3541 17.4299H39.1972V22.8962H29.3541V17.4299ZM8.14829 54.7843L13.0473 25.3193C13.0998 25.0025 13.2632 24.7148 13.5083 24.5074C13.7534 24.3 14.0643 24.1865 14.3853 24.1871H55.4943C55.8146 24.187 56.1246 24.3008 56.3686 24.5082C56.6127 24.7156 56.775 25.0031 56.8265 25.3193L61.7255 54.7836C61.7573 54.977 61.7467 55.175 61.6944 55.3639C61.6422 55.5528 61.5495 55.7281 61.4228 55.8776C61.2961 56.0272 61.1384 56.1474 60.9606 56.23C60.7829 56.3126 60.5893 56.3555 60.3933 56.3559H9.48632C9.28997 56.3562 9.09592 56.3137 8.91762 56.2314C8.73932 56.1492 8.58105 56.0291 8.45376 55.8796C8.32648 55.7301 8.23323 55.5547 8.18048 55.3655C8.12774 55.1764 8.11675 54.9781 8.14829 54.7843ZM22.6736 57.6469V59.6374C22.6736 60.0525 22.336 60.3907 21.9204 60.3907H15.4122C15.2125 60.3905 15.021 60.3111 14.8798 60.1699C14.7386 60.0286 14.6592 59.8372 14.659 59.6374V57.6475L22.6736 57.6469ZM23.9645 59.6374V57.6475H45.91V59.6374C45.91 59.9176 45.9668 60.1848 46.0694 60.4281H23.8051C23.9077 60.1848 23.9645 59.9176 23.9645 59.6374ZM66.4819 60.4281H65.4188C65.2476 60.4281 65.0835 60.4961 64.9624 60.6172C64.8414 60.7382 64.7734 60.9024 64.7734 61.0736C64.7734 61.2448 64.8414 61.4089 64.9624 61.53C65.0835 61.651 65.2476 61.719 65.4188 61.719H66.4819C66.6531 61.719 66.8173 61.651 66.9383 61.53C67.0593 61.4089 67.1273 61.2448 67.1273 61.0736C67.1273 60.9024 67.0593 60.7382 66.9383 60.6172C66.8173 60.4961 66.6531 60.4281 66.4819 60.4281Z" fill="black"/>
<path d="M34.9372 54.0336C42.5258 54.0336 48.6989 47.8598 48.6989 40.2718C48.6989 32.6839 42.5258 26.5088 34.9372 26.5088C27.3486 26.5088 21.1748 32.6826 21.1748 40.2712C21.1748 47.8598 27.3486 54.0323 34.9372 54.0323V54.0336ZM34.9372 27.8004C41.8132 27.8004 47.408 33.3952 47.408 40.2718C47.408 47.1485 41.8132 52.742 34.9372 52.742C28.0605 52.742 22.4657 47.1479 22.4657 40.2718C22.4657 33.3958 28.0605 27.8004 34.9372 27.8004Z" fill="black"/>
<path d="M34.9366 49.2676C34.7655 49.2676 34.6013 49.3356 34.4802 49.4566C34.3592 49.5777 34.2912 49.7418 34.2912 49.913V51.3653C34.2912 51.5365 34.3592 51.7006 34.4802 51.8217C34.6013 51.9427 34.7655 52.0107 34.9366 52.0107C35.1078 52.0107 35.272 51.9427 35.393 51.8217C35.5141 51.7006 35.5821 51.5365 35.5821 51.3653V49.913C35.5821 49.7418 35.5141 49.5777 35.393 49.4566C35.272 49.3356 35.1078 49.2676 34.9366 49.2676ZM27.663 33.9103C27.7226 33.9719 27.7938 34.0211 27.8725 34.0549C27.9513 34.0887 28.036 34.1065 28.1217 34.1073C28.2074 34.108 28.2924 34.0917 28.3717 34.0592C28.451 34.0268 28.5231 33.9789 28.5837 33.9183C28.6443 33.8577 28.6922 33.7856 28.7247 33.7063C28.7571 33.6269 28.7735 33.5419 28.7727 33.4562C28.772 33.3705 28.7542 33.2858 28.7203 33.2071C28.6865 33.1283 28.6373 33.0571 28.5757 32.9976L27.5494 31.9713C27.4895 31.9113 27.4183 31.8638 27.34 31.8313C27.2617 31.7988 27.1778 31.7821 27.093 31.7821C27.0082 31.782 26.9242 31.7987 26.8459 31.8311C26.7676 31.8635 26.6964 31.9111 26.6364 31.971C26.5764 32.0309 26.5289 32.1021 26.4964 32.1804C26.4639 32.2587 26.4472 32.3426 26.4472 32.4274C26.4471 32.5122 26.4638 32.5962 26.4962 32.6745C26.5286 32.7528 26.5762 32.824 26.6361 32.884L27.663 33.9103ZM42.3258 48.5724C42.3853 48.634 42.4566 48.6832 42.5353 48.7171C42.6141 48.7509 42.6988 48.7687 42.7845 48.7694C42.8702 48.7702 42.9552 48.7538 43.0345 48.7214C43.1138 48.6889 43.1859 48.641 43.2465 48.5804C43.3071 48.5198 43.355 48.4477 43.3875 48.3684C43.4199 48.2891 43.4362 48.2041 43.4355 48.1184C43.4348 48.0327 43.4169 47.948 43.3831 47.8692C43.3493 47.7905 43.3001 47.7193 43.2385 47.6597L42.2109 46.6335C42.1518 46.5704 42.0805 46.5198 42.0014 46.4848C41.9223 46.4498 41.837 46.431 41.7506 46.4296C41.6641 46.4282 41.5782 46.4442 41.498 46.4766C41.4179 46.5091 41.345 46.5573 41.2838 46.6184C41.2227 46.6795 41.1744 46.7523 41.1419 46.8325C41.1094 46.9127 41.0934 46.9985 41.0947 47.085C41.096 47.1715 41.1148 47.2568 41.1497 47.3359C41.1847 47.415 41.2352 47.4863 41.2982 47.5455L42.3258 48.5724ZM25.2955 39.6264H23.8432C23.672 39.6264 23.5079 39.6944 23.3868 39.8155C23.2658 39.9365 23.1978 40.1007 23.1978 40.2719C23.1978 40.443 23.2658 40.6072 23.3868 40.7283C23.5079 40.8493 23.672 40.9173 23.8432 40.9173H25.2955C25.4667 40.9173 25.6308 40.8493 25.7519 40.7283C25.8729 40.6072 25.9409 40.443 25.9409 40.2719C25.9409 40.1007 25.8729 39.9365 25.7519 39.8155C25.6308 39.6944 25.4667 39.6264 25.2955 39.6264ZM44.5791 40.9173H46.0314C46.2025 40.9173 46.3667 40.8493 46.4878 40.7283C46.6088 40.6072 46.6768 40.443 46.6768 40.2719C46.6768 40.1007 46.6088 39.9365 46.4878 39.8155C46.3667 39.6944 46.2025 39.6264 46.0314 39.6264H44.5791C44.4079 39.6264 44.2437 39.6944 44.1227 39.8155C44.0016 39.9365 43.9336 40.1007 43.9336 40.2719C43.9336 40.443 44.0016 40.6072 44.1227 40.7283C44.2437 40.8493 44.4079 40.9173 44.5791 40.9173ZM27.5488 48.5724L28.5757 47.5461C28.6357 47.4862 28.6832 47.415 28.7157 47.3367C28.7482 47.2584 28.7649 47.1745 28.7649 47.0897C28.765 47.0049 28.7483 46.921 28.7159 46.8426C28.6835 46.7643 28.6359 46.6931 28.576 46.6331C28.5161 46.5732 28.4449 46.5256 28.3666 46.4931C28.2883 46.4606 28.2044 46.4439 28.1196 46.4439C28.0348 46.4439 27.9508 46.4605 27.8725 46.4929C27.7942 46.5254 27.723 46.5729 27.663 46.6328L26.6367 47.6597C26.5736 47.7189 26.5231 47.7901 26.4881 47.8692C26.4531 47.9483 26.4343 48.0336 26.4329 48.1201C26.4315 48.2066 26.4475 48.2924 26.4799 48.3726C26.5123 48.4528 26.5605 48.5256 26.6217 48.5868C26.6828 48.648 26.7556 48.6962 26.8358 48.7287C26.9159 48.7612 27.0018 48.7773 27.0883 48.7759C27.1748 48.7746 27.2601 48.7559 27.3392 48.7209C27.4183 48.686 27.4896 48.6354 27.5488 48.5724ZM42.2116 33.9103L43.2391 32.884C43.2991 32.8241 43.3467 32.7529 43.3791 32.6746C43.4116 32.5963 43.4283 32.5123 43.4284 32.4276C43.4284 32.3428 43.4117 32.2588 43.3793 32.1805C43.3469 32.1021 43.2994 32.031 43.2394 31.971C43.1795 31.911 43.1084 31.8634 43.03 31.831C42.9517 31.7985 42.8678 31.7818 42.783 31.7817C42.6982 31.7817 42.6143 31.7984 42.5359 31.8308C42.4576 31.8632 42.3864 31.9107 42.3264 31.9707L41.2989 32.9976C41.2372 33.0571 41.1881 33.1283 41.1542 33.2071C41.1204 33.2858 41.1026 33.3705 41.1019 33.4562C41.1011 33.5419 41.1174 33.6269 41.1499 33.7063C41.1824 33.7856 41.2303 33.8577 41.2909 33.9183C41.3515 33.9789 41.4236 34.0268 41.5029 34.0592C41.5822 34.0917 41.6672 34.108 41.7529 34.1073C41.8386 34.1065 41.9233 34.0887 42.002 34.0549C42.0808 34.0211 42.152 33.9719 42.2116 33.9103ZM33.8271 42.4954C33.8217 42.5471 33.8272 42.5994 33.8432 42.6488C33.8593 42.6982 33.8855 42.7437 33.9202 42.7823C33.955 42.821 33.9974 42.8519 34.0449 42.8731C34.0923 42.8942 34.1437 42.9052 34.1957 42.9053H35.6841C35.9035 42.9053 36.0759 42.7149 36.0526 42.4954L35.9203 41.1116C36.0997 40.9662 36.2442 40.7824 36.3431 40.5737C36.4419 40.365 36.4927 40.1368 36.4915 39.9059C36.4908 39.6238 36.4144 39.3471 36.2702 39.1047C36.126 38.8623 35.9193 38.6631 35.6718 38.5278L34.9838 31.2665C35.1456 31.256 35.2975 31.1845 35.4087 31.0664C35.5199 30.9482 35.5821 30.7923 35.5827 30.6301V29.1778C35.5827 29.0066 35.5147 28.8424 35.3937 28.7214C35.2726 28.6003 35.1085 28.5323 34.9373 28.5323C34.7661 28.5323 34.6019 28.6003 34.4809 28.7214C34.3598 28.8424 34.2918 29.0066 34.2918 29.1778V30.6301C34.2918 30.9722 34.5603 31.2458 34.8973 31.2678L34.2073 38.5272C33.9585 38.6614 33.7506 38.8602 33.6055 39.1028C33.4604 39.3454 33.3836 39.6226 33.383 39.9052C33.383 40.3958 33.6076 40.8282 33.9594 41.1109L33.8271 42.4954Z" fill="black"/>
</svg>
