<svg width="16" height="16" viewBox="0 0 16 16" fill="none" xmlns="http://www.w3.org/2000/svg">
<path d="M13.8182 0H2.18182C1.60316 0 1.04821 0.229869 0.63904 0.63904C0.229869 1.04821 0 1.60316 0 2.18182L0 13.8182C0 14.3968 0.229869 14.9518 0.63904 15.361C1.04821 15.7701 1.60316 16 2.18182 16H13.8182C14.3968 16 14.9518 15.7701 15.361 15.361C15.7701 14.9518 16 14.3968 16 13.8182V2.18182C16 1.60316 15.7701 1.04821 15.361 0.63904C14.9518 0.229869 14.3968 0 13.8182 0ZM12.99 4.63091L11.4282 11.5318C11.3545 11.8555 10.9436 12.0018 10.6555 11.8045L8.29727 10.2045L7.09636 11.34C7.0474 11.3859 6.98796 11.4193 6.9232 11.437C6.85844 11.4548 6.79033 11.4565 6.72477 11.442C6.6592 11.4275 6.59817 11.3972 6.54696 11.3538C6.49575 11.3103 6.45592 11.255 6.43091 11.1927L5.99727 9.92L5.56364 8.64727L3.23909 8.01091C3.1741 7.99672 3.11561 7.96145 3.07273 7.9106C3.02984 7.85974 3.00497 7.79613 3.00196 7.72968C2.99895 7.66322 3.01799 7.59763 3.0561 7.54311C3.09422 7.48858 3.14928 7.44818 3.21273 7.42818L12.1927 4.19273L12.3582 4.13364C12.7064 4.01182 13.0664 4.29364 12.99 4.63091Z" fill="white"/>
</svg>
